<?xml version="1.0" standalone="no"?><!DOCTYPE svg PUBLIC "-//W3C//DTD SVG 1.1//EN" "http://www.w3.org/Graphics/SVG/1.1/DTD/svg11.dtd"><svg t="1603873381050" class="icon" viewBox="0 0 1024 1024" version="1.1" xmlns="http://www.w3.org/2000/svg" p-id="6283" xmlns:xlink="http://www.w3.org/1999/xlink" width="200" height="200"><defs><style type="text/css"></style></defs><path d="M450.60096 111.29856c34.60096-28.8 92.99968-28.8 127.49824 0l179.70176 149.80096h-164.39808v182.99904c0 15.20128-11.88352 27.10016-27.10016 27.10016H462.40256c-15.20128 0-27.10016-11.89888-27.10016-27.10016V261.09952H271.0016l179.59936-149.80096z" fill="#ADC0A1" p-id="6284"></path><path d="M664.46848 821.20192a178.816 178.816 0 0 1 28.73856-97.44896c-29.09184 32.7168-74.32704 75.56096-178.82624 75.56096-111.80032 0-154.5984-49.39776-182.90176-82.0992-12.6976-14.69952-20.1984-22.912-27.20256-22.912H199.30112c-43.29984 0-78.49984-35.30752-78.49984-78.60736v-420.096c0-41.90208 36.70016-78.60224 78.49984-78.60224a26.48064 26.48064 0 0 0 26.50112-26.50112c0-14.60224-12.00128-26.496-26.60352-26.496H146.2016a78.62784 78.62784 0 0 0-55.70048 22.99904c-14.8992 14.7968-22.99904 34.60096-22.99904 55.59808v736.50176c0 20.89984 8.20224 40.69888 22.99904 55.59808a79.00672 79.00672 0 0 0 55.59808 22.98368h581.22752c-38.45632-32.96256-62.85824-81.84832-62.85824-136.47872zM961.19808 142.49984c0-21.00224-8.21248-40.69888-22.99904-55.59808-14.80192-14.8992-34.60096-23.00416-55.5008-23.00416h-53.09952a26.48064 26.48064 0 0 0-26.50112 26.50112 26.5472 26.5472 0 0 0 26.50112 26.50112c41.79968 0 78.49984 36.70016 78.49984 78.60224v419.89632c0.1792 11.84256-2.8416 23.78752-8.43776 34.78016a179.3536 179.3536 0 0 1 61.5424 34.56512V142.49984h-0.00512z" fill="#ADC0A1" p-id="6285"></path><path d="M844.24192 669.98784c-83.3792 0-151.20896 67.82976-151.20896 151.20896 0 83.36384 67.82976 151.18848 151.20896 151.18848 83.37408 0 151.19872-67.82464 151.19872-151.18848 0-83.3792-67.82464-151.20896-151.19872-151.20896z m43.10016 191.45728a14.3872 14.3872 0 0 1-11.84768 6.17472l0.03072 0.02048a14.42816 14.42816 0 0 1-8.21248-2.59584l-38.53312-26.78272a14.40768 14.40768 0 0 1-6.20032-11.84768v-66.52928a14.41792 14.41792 0 1 1 28.84608 0v58.98752l32.3328 22.49216a14.41792 14.41792 0 0 1 3.584 20.08064z" fill="#ADC0A1" p-id="6286"></path></svg>